<svg width="418" height="418" viewBox="0 0 418 418" fill="none" xmlns="http://www.w3.org/2000/svg">
<path d="M339.515 81.9665L254.329 32.9564C226.457 16.8812 192.304 16.8812 164.431 32.9564L78.8524 81.9665C51.3731 98.0412 34.1003 127.839 34.1003 159.598V258.01C34.1003 290.161 51.3731 319.566 78.8524 335.642L164.039 385.043C191.911 401.119 226.064 401.119 253.936 385.043L339.122 335.642C366.994 319.566 383.875 290.161 383.875 258.01V159.598C384.66 127.839 367.387 98.0412 339.515 81.9665ZM209.184 296.434C160.899 296.434 121.642 257.225 121.642 209C121.642 160.774 160.899 121.566 209.184 121.566C257.469 121.566 297.118 160.774 297.118 209C297.118 257.225 257.862 296.434 209.184 296.434Z" fill="white"/>
<path d="M81.0909 255V161.909H117.818C124.879 161.909 130.894 163.258 135.864 165.955C140.833 168.621 144.621 172.333 147.227 177.091C149.864 181.818 151.182 187.273 151.182 193.455C151.182 199.636 149.848 205.091 147.182 209.818C144.515 214.545 140.652 218.227 135.591 220.864C130.561 223.5 124.47 224.818 117.318 224.818H93.9091V209.045H114.136C117.924 209.045 121.045 208.394 123.5 207.091C125.985 205.758 127.833 203.924 129.045 201.591C130.288 199.227 130.909 196.515 130.909 193.455C130.909 190.364 130.288 187.667 129.045 185.364C127.833 183.03 125.985 181.227 123.5 179.955C121.015 178.652 117.864 178 114.045 178H100.773V255H81.0909ZM252.071 208.455C252.071 218.606 250.147 227.242 246.299 234.364C242.48 241.485 237.268 246.924 230.662 250.682C224.087 254.409 216.693 256.273 208.48 256.273C200.208 256.273 192.783 254.394 186.208 250.636C179.632 246.879 174.435 241.439 170.617 234.318C166.799 227.197 164.89 218.576 164.89 208.455C164.89 198.303 166.799 189.667 170.617 182.545C174.435 175.424 179.632 170 186.208 166.273C192.783 162.515 200.208 160.636 208.48 160.636C216.693 160.636 224.087 162.515 230.662 166.273C237.268 170 242.48 175.424 246.299 182.545C250.147 189.667 252.071 198.303 252.071 208.455ZM232.117 208.455C232.117 201.879 231.132 196.333 229.162 191.818C227.223 187.303 224.48 183.879 220.935 181.545C217.39 179.212 213.238 178.045 208.48 178.045C203.723 178.045 199.571 179.212 196.026 181.545C192.48 183.879 189.723 187.303 187.753 191.818C185.814 196.333 184.844 201.879 184.844 208.455C184.844 215.03 185.814 220.576 187.753 225.091C189.723 229.606 192.48 233.03 196.026 235.364C199.571 237.697 203.723 238.864 208.48 238.864C213.238 238.864 217.39 237.697 220.935 235.364C224.48 233.03 227.223 229.606 229.162 225.091C231.132 220.576 232.117 215.03 232.117 208.455ZM319.711 188.682C319.347 185.015 317.787 182.167 315.029 180.136C312.272 178.106 308.529 177.091 303.802 177.091C300.59 177.091 297.878 177.545 295.665 178.455C293.453 179.333 291.756 180.561 290.575 182.136C289.423 183.712 288.847 185.5 288.847 187.5C288.787 189.167 289.135 190.621 289.893 191.864C290.681 193.106 291.756 194.182 293.12 195.091C294.484 195.97 296.059 196.742 297.847 197.409C299.635 198.045 301.544 198.591 303.575 199.045L311.938 201.045C315.999 201.955 319.726 203.167 323.12 204.682C326.514 206.197 329.453 208.061 331.938 210.273C334.423 212.485 336.347 215.091 337.711 218.091C339.105 221.091 339.817 224.53 339.847 228.409C339.817 234.106 338.362 239.045 335.484 243.227C332.635 247.379 328.514 250.606 323.12 252.909C317.756 255.182 311.287 256.318 303.711 256.318C296.196 256.318 289.65 255.167 284.075 252.864C278.529 250.561 274.196 247.152 271.075 242.636C267.984 238.091 266.362 232.47 266.211 225.773H285.256C285.468 228.894 286.362 231.5 287.938 233.591C289.544 235.652 291.681 237.212 294.347 238.273C297.044 239.303 300.09 239.818 303.484 239.818C306.817 239.818 309.711 239.333 312.165 238.364C314.65 237.394 316.575 236.045 317.938 234.318C319.302 232.591 319.984 230.606 319.984 228.364C319.984 226.273 319.362 224.515 318.12 223.091C316.908 221.667 315.12 220.455 312.756 219.455C310.423 218.455 307.559 217.545 304.165 216.727L294.029 214.182C286.181 212.273 279.984 209.288 275.438 205.227C270.893 201.167 268.635 195.697 268.665 188.818C268.635 183.182 270.135 178.258 273.165 174.045C276.226 169.833 280.423 166.545 285.756 164.182C291.09 161.818 297.15 160.636 303.938 160.636C310.847 160.636 316.878 161.818 322.029 164.182C327.211 166.545 331.241 169.833 334.12 174.045C336.999 178.258 338.484 183.136 338.575 188.682H319.711Z" fill="white" stroke="white" stroke-width="4" paint-order="stroke"/>
</svg>
